
<svg width="48" height="48" viewBox="0 0 48 48" fill="none" xmlns="http://www.w3.org/2000/svg">
<g opacity="0.2">
<circle cx="24" cy="24" r="24" fill="#009393"/>
<path d="M24.1162 13.4388C24.5717 14.193 25.0092 14.9164 25.4458 15.6405C27.1443 18.4573 28.8388 21.2766 30.5469 24.0876C30.7085 24.3535 30.6655 24.4503 30.4052 24.6018C28.3714 25.7859 26.3477 26.9871 24.3238 28.1882C24.1958 28.2642 24.1028 28.313 23.9517 28.2232C21.8563 26.9773 19.7567 25.7386 17.6585 24.4974C17.616 24.4723 17.5771 24.4408 17.5129 24.3955C19.7086 20.7523 21.9012 17.1142 24.1162 13.4388ZM30.6871 25.3382C30.6012 25.3238 30.5504 25.3457 30.5031 25.3737C28.4802 26.5694 26.4554 27.7619 24.4381 28.9668C24.198 29.1102 24.0269 29.1307 23.7704 28.9766C21.8181 27.8038 19.8534 26.6517 17.8923 25.4935C17.8041 25.4414 17.7137 25.3928 17.6243 25.3427C17.6127 25.3596 17.6009 25.3766 17.5893 25.3935C19.7588 28.4508 21.9283 31.5082 24.1173 34.5929C26.318 31.4928 28.5025 28.4155 30.6871 25.3382Z" fill="white"/>
</g>
</svg>
